# xmcd CD database file
#
# Track frame offsets:
#	150
#	11610
#	28257
#	39515
#	53880
#	67470
#	77925
#	90545
#	101342
#	112662
#	123382
#
# Disc length: 1789 seconds
#
# Revision: 1
# Processed by: cddbd v1.4PL0 Copyright (c) Steve Scherf et al.
# Submitted via: CDex 1.50beta10
#
DISCID=8c06fb0b
DTITLE=Charlie McCoy - The Real McCoy
DYEAR=1972
DGENRE=Country
TTITLE0=Today I Started Loving You Again
TTITLE1=Orange Blossom Special
TTITLE2=Only Daddy That'll Walk The Line
TTITLE3=Jackson
TTITLE4=Hangin On
TTITLE5=The Real McCoy
TTITLE6=Loving Her Was Easier (Than Anything I'll Ever Do Again)
TTITLE7=Easy Lovin'
TTITLE8=How Can I Unlove You
TTITLE9=Help Me Make It Through The Night
TTITLE10=Take Me Home Country Road
EXTD=YEAR: 1972
EXTT0=
EXTT1=
EXTT2=
EXTT3=
EXTT4=
EXTT5=
EXTT6=
EXTT7=
EXTT8=
EXTT9=
EXTT10=
PLAYORDER=
